<?xml version="1.0" encoding="UTF-8" standalone="no"?>
<svg width="170px" height="39px" viewBox="0 0 170 39" version="1.1" xmlns="http://www.w3.org/2000/svg" xmlns:xlink="http://www.w3.org/1999/xlink">
    <!-- Generator: Sketch 40.3 (33839) - http://www.bohemiancoding.com/sketch -->
    <title>Group 5 Copy</title>
    <desc>Created with Sketch.</desc>
    <defs></defs>
    <g id="Page-1" stroke="none" stroke-width="1" fill="none" fill-rule="evenodd">
        <g id="homepage" transform="translate(-138.000000, -44.000000)">
            <g id="Group-5-Copy" transform="translate(138.000000, 44.000000)">
                <path d="M69.3948744,15.2808417 L69.4807564,16.8147267 C69.9469752,16.2502542 70.5072473,15.81259 71.1615896,15.5017211 C71.8159318,15.1908522 72.5438765,15.0354201 73.3454457,15.0354201 C73.9834294,15.0354201 74.5621046,15.1233619 75.0814887,15.2992483 C75.6008728,15.4751346 76.044592,15.7594118 76.4126595,16.1520884 C76.780727,16.5447649 77.0649526,17.0560548 77.2653449,17.6859734 C77.4657372,18.315892 77.5659318,19.0807817 77.5659318,19.9806654 L77.5659318,28.5581506 L74.5846001,28.5581506 L74.5846001,19.9561233 C74.5846001,19.4980006 74.5334804,19.1114655 74.4312394,18.7965062 C74.3289984,18.4815469 74.1797289,18.2259019 73.9834262,18.0295637 C73.7871235,17.8332254 73.5437937,17.6921094 73.2534293,17.6062114 C72.963065,17.5203134 72.6297644,17.477365 72.2535176,17.477365 C71.6400718,17.477365 71.106382,17.6246165 70.6524321,17.9191239 C70.1984822,18.2136313 69.8365546,18.6103923 69.5666384,19.1094187 L69.5666384,28.5581506 L66.5853066,28.5581506 L66.5853066,15.2808417 L69.3948744,15.2808417 Z M83.7739725,28.5581506 L80.7926407,28.5581506 L80.7926407,15.2808417 L83.7739725,15.2808417 L83.7739725,28.5581506 Z M80.6086079,11.8326681 C80.6086079,11.3745455 80.7537879,10.9941458 81.0441522,10.6914576 C81.3345166,10.3887695 81.7496087,10.2374276 82.289441,10.2374276 C82.8292733,10.2374276 83.2464102,10.3887695 83.5408642,10.6914576 C83.8353182,10.9941458 83.982543,11.3745455 83.982543,11.8326681 C83.982543,12.2826099 83.8353182,12.6568742 83.5408642,12.9554719 C83.2464102,13.2540697 82.8292733,13.4033664 82.289441,13.4033664 C81.7496087,13.4033664 81.3345166,13.2540697 81.0441522,12.9554719 C80.7537879,12.6568742 80.6086079,12.2826099 80.6086079,11.8326681 L80.6086079,11.8326681 Z M92.4725906,26.4229826 C92.8324789,26.4229826 93.169869,26.3677633 93.4847712,26.257323 C93.7996734,26.1468827 94.073675,25.9914506 94.3067845,25.791022 C94.5398939,25.5905933 94.7280144,25.3513096 94.8711518,25.0731638 C95.0142891,24.7950179 95.0940359,24.4923343 95.1103945,24.1651038 L97.9199622,24.1651038 C97.8954244,24.8032032 97.7379757,25.4044801 97.4476113,25.9689526 C97.157247,26.5334251 96.7687371,27.0263086 96.2820701,27.4476178 C95.7954031,27.868927 95.2289966,28.2002429 94.5828337,28.4415753 C93.9366708,28.6829078 93.2455322,28.8035722 92.5093972,28.8035722 C91.4869875,28.8035722 90.5975044,28.6276884 89.8409212,28.2759157 C89.0843381,27.924143 88.4545432,27.4455756 87.9515176,26.8401993 C87.448492,26.234823 87.0742957,25.5271978 86.8289174,24.7173024 C86.583539,23.9074071 86.4608517,23.04844 86.4608517,22.1403756 L86.4608517,21.7108877 C86.4608517,20.8028233 86.583539,19.9438562 86.8289174,19.1339609 C87.0742957,18.3240655 87.448492,17.6143951 87.9515176,17.0049284 C88.4545432,16.3954617 89.0822933,15.9148492 89.8347868,15.5630765 C90.5872804,15.2113038 91.4747187,15.0354201 92.4971284,15.0354201 C93.2986976,15.0354201 94.0286871,15.1581296 94.687119,15.4035525 C95.3455508,15.6489753 95.9099125,15.9925621 96.380221,16.4343232 C96.8505294,16.8760843 97.2185914,17.4037355 97.4844179,18.0172926 C97.7502444,18.6308497 97.8954244,19.3057523 97.9199622,20.0420208 L95.1103945,20.0420208 C95.0940359,19.6902481 95.0224683,19.3548419 94.8956895,19.0357922 C94.7689107,18.7167426 94.5930589,18.4386008 94.3681287,18.2013588 C94.1431986,17.9641167 93.8712417,17.775962 93.5522499,17.6368891 C93.2332581,17.4978161 92.8733752,17.4282807 92.4725906,17.4282807 C91.8673241,17.4282807 91.3683957,17.5530355 90.9757903,17.8025487 C90.583185,18.0520619 90.2723771,18.3772423 90.0433574,18.7780996 C89.8143376,19.1789568 89.6568889,19.6370726 89.5710064,20.1524605 C89.485124,20.6678485 89.4421835,21.187319 89.4421835,21.7108877 L89.4421835,22.1403756 C89.4421835,22.6803058 89.485124,23.2059118 89.5710064,23.7172094 C89.6568889,24.2285069 89.8143376,24.6845775 90.0433574,25.0854348 C90.2723771,25.4862921 90.5811402,25.8094273 90.9696559,26.0548502 C91.3581716,26.300273 91.8591448,26.4229826 92.4725906,26.4229826 L92.4725906,26.4229826 Z M106.017407,28.8035722 C105.035893,28.8035722 104.152545,28.6399594 103.367334,28.312729 C102.582123,27.9854985 101.915522,27.5355634 101.36751,26.9629101 C100.819499,26.3902568 100.398272,25.7112639 100.103818,24.9259108 C99.8093644,24.1405577 99.6621397,23.2938616 99.6621397,22.3857972 L99.6621397,21.894954 C99.6621397,20.8478165 99.8175436,19.9009076 100.128356,19.0541989 C100.439169,18.2074901 100.864485,17.4875939 101.404317,16.8944887 C101.944149,16.3013835 102.580079,15.8432678 103.312124,15.5201277 C104.044169,15.1969877 104.831413,15.0354201 105.673879,15.0354201 C106.639033,15.0354201 107.477397,15.1969877 108.188994,15.5201277 C108.900591,15.8432678 109.48949,16.2952481 109.955709,16.8760821 C110.421928,17.4569161 110.769542,18.1481801 110.998562,18.9498947 C111.227581,19.7516093 111.34209,20.6310279 111.34209,21.5881769 L111.34209,22.8643693 L102.668009,22.8643693 C102.708906,23.3797572 102.817279,23.8542343 102.993134,24.2878146 C103.168988,24.721395 103.408229,25.0956592 103.710862,25.4106185 C104.013495,25.7255778 104.371333,25.9730421 104.784387,26.1530188 C105.19744,26.3329956 105.665697,26.4229826 106.189171,26.4229826 C106.925305,26.4229826 107.565324,26.2757311 108.109246,25.9812237 C108.653168,25.6867163 109.125514,25.2817747 109.526299,24.7663867 L111.133519,26.3002718 C110.920858,26.6193215 110.65708,26.9281406 110.342178,27.2267384 C110.027276,27.5253361 109.659214,27.7912069 109.237981,28.0243586 C108.816748,28.2575103 108.340312,28.4456649 107.808659,28.5888283 C107.277006,28.7319916 106.679928,28.8035722 106.017407,28.8035722 L106.017407,28.8035722 Z M105.66161,17.4282807 C104.843682,17.4282807 104.183215,17.7146031 103.68019,18.2872563 C103.177164,18.8599096 102.856132,19.6575219 102.717085,20.680117 L108.397564,20.680117 L108.397564,20.4592376 C108.373027,20.066561 108.309638,19.6882065 108.207397,19.3241626 C108.105156,18.9601188 107.947707,18.6369835 107.735046,18.3547473 C107.522385,18.072511 107.246339,17.8475435 106.906899,17.6798379 C106.567459,17.5121323 106.152366,17.4282807 105.66161,17.4282807 L105.66161,17.4282807 Z M127.352945,24.950453 C127.352945,24.7377532 127.318184,24.5393727 127.24866,24.3553056 C127.179136,24.1712384 127.042135,23.999445 126.837653,23.8399202 C126.633171,23.6803953 126.344856,23.5310987 125.972699,23.3920258 C125.600542,23.2529528 125.115927,23.1220626 124.51884,22.9993512 C123.807243,22.8520975 123.159045,22.6680331 122.574226,22.4471526 C121.989408,22.226272 121.488435,21.9583561 121.071292,21.6433968 C120.654148,21.3284375 120.329027,20.9582636 120.095918,20.532864 C119.862808,20.1074645 119.746255,19.6166262 119.746255,19.0603344 C119.746255,18.5204042 119.864853,18.0070691 120.102052,17.5203138 C120.339251,17.0335585 120.680731,16.6061202 121.126501,16.2379859 C121.572272,15.8698517 122.112096,15.5773939 122.74599,15.3606037 C123.379884,15.1438135 124.089426,15.0354201 124.874637,15.0354201 C125.700744,15.0354201 126.443002,15.1438135 127.101434,15.3606037 C127.759866,15.5773939 128.318093,15.8759872 128.776133,16.2563925 C129.234172,16.6367979 129.583831,17.0846879 129.82512,17.6000758 C130.066408,18.1154638 130.187051,18.6717472 130.187051,19.2689428 L127.205719,19.2689428 C127.205719,19.0153392 127.156644,18.7678749 127.058493,18.5265424 C126.960341,18.28521 126.813117,18.0704682 126.616814,17.8823107 C126.420511,17.6941532 126.177182,17.5448565 125.886817,17.4344163 C125.596453,17.323976 125.259063,17.2687567 124.874637,17.2687567 C124.49839,17.2687567 124.171224,17.3157953 123.893128,17.4098741 C123.615033,17.5039528 123.383972,17.6266624 123.199938,17.7780065 C123.015904,17.9293506 122.878903,18.1052343 122.788931,18.305663 C122.698959,18.5060916 122.653974,18.716743 122.653974,18.9376236 C122.653974,19.1585041 122.69487,19.3548395 122.776662,19.5266355 C122.858455,19.6984314 123.003635,19.8538636 123.212207,19.9929365 C123.420778,20.1320094 123.700914,20.2608545 124.052623,20.3794755 C124.404332,20.4980966 124.846007,20.6146707 125.37766,20.7292013 C126.146512,20.8928165 126.835606,21.0850615 127.444962,21.3059421 C128.054318,21.5268226 128.569605,21.7967837 128.990837,22.1158334 C129.41207,22.4348831 129.733102,22.8111924 129.953943,23.2447728 C130.174783,23.6783531 130.285202,24.1937333 130.285202,24.7909289 C130.285202,25.3799437 130.158425,25.9198658 129.904867,26.4107115 C129.65131,26.9015572 129.289382,27.3249052 128.819074,27.6807683 C128.348765,28.0366314 127.782359,28.312728 127.119837,28.5090662 C126.457316,28.7054045 125.721192,28.8035722 124.911443,28.8035722 C124.003543,28.8035722 123.199941,28.6747271 122.500613,28.4170331 C121.801285,28.1593392 121.214431,27.8218878 120.740033,27.404669 C120.265634,26.9874502 119.907796,26.5150183 119.666508,25.9873592 C119.425219,25.4597001 119.304576,24.9218232 119.304576,24.3737122 L122.200026,24.3737122 C122.224564,24.7827502 122.318624,25.126337 122.48221,25.4044829 C122.645795,25.6826288 122.854364,25.9075964 123.107922,26.0793923 C123.361479,26.2511883 123.64775,26.3759431 123.966741,26.4536603 C124.285733,26.5313775 124.612899,26.5702356 124.94825,26.5702356 C125.73346,26.5702356 126.330539,26.4209389 126.739503,26.1223411 C127.148466,25.8237433 127.352945,25.4331179 127.352945,24.950453 L127.352945,24.950453 Z M136.615931,12.0535475 L136.615931,15.2808417 L138.959282,15.2808417 L138.959282,17.4896361 L136.615931,17.4896361 L136.615931,24.9013686 C136.615931,25.2040568 136.648647,25.4494759 136.714082,25.6376335 C136.779516,25.825791 136.873576,25.9709973 136.996265,26.0732568 C137.118955,26.1755163 137.264135,26.2450517 137.43181,26.2818652 C137.599485,26.3186786 137.785561,26.337085 137.990043,26.337085 C138.194525,26.337085 138.392869,26.3227689 138.585082,26.2941362 C138.777295,26.2655036 138.926565,26.2389165 139.032895,26.2143742 L139.032895,28.5213373 C138.795696,28.5867834 138.51965,28.6501834 138.204748,28.7115391 C137.889845,28.7728948 137.511559,28.8035722 137.069878,28.8035722 C136.579122,28.8035722 136.123134,28.7381271 135.701901,28.6072349 C135.280668,28.4763427 134.916696,28.2636461 134.609973,27.9691387 C134.30325,27.6746313 134.06401,27.2901413 133.892245,26.8156572 C133.72048,26.341173 133.634599,25.7603477 133.634599,25.0731638 L133.634599,17.4896361 L131.450743,17.4896361 L131.450743,15.2808417 L133.634599,15.2808417 L133.634599,12.0535475 L136.615931,12.0535475 Z M149.166969,28.5581506 C149.085177,28.4027161 149.017699,28.2186517 148.964533,28.005952 C148.911368,27.7932522 148.864338,27.5641943 148.823442,27.3187715 C148.627139,27.5232905 148.408346,27.7155355 148.167058,27.8955122 C147.925769,28.075489 147.659947,28.2329663 147.369582,28.3679488 C147.079218,28.5029314 146.76432,28.6092797 146.42488,28.6869969 C146.08544,28.7647141 145.723513,28.8035722 145.339087,28.8035722 C144.676565,28.8035722 144.067218,28.7033594 143.511027,28.5029307 C142.954836,28.3025021 142.478401,28.0243604 142.081706,27.6684972 C141.685011,27.3126341 141.374203,26.8933764 141.149273,26.4107115 C140.924343,25.9280466 140.811879,25.4044857 140.811879,24.8400132 C140.811879,24.128287 140.946835,23.4983779 141.216751,22.9502669 C141.486668,22.4021559 141.879267,21.9440401 142.394562,21.5759059 C142.909856,21.2077716 143.541696,20.9275847 144.2901,20.7353369 C145.038504,20.543089 145.89118,20.4469665 146.848156,20.4469665 L148.725291,20.4469665 L148.725291,19.5757198 C148.725291,18.8885358 148.533081,18.3383879 148.148655,17.9252595 C147.764228,17.512131 147.179419,17.3055699 146.394208,17.3055699 C146.042499,17.3055699 145.723512,17.3526086 145.437238,17.4466873 C145.150963,17.5407661 144.907633,17.667566 144.707241,17.8270908 C144.506848,17.9866157 144.351444,18.1768155 144.241024,18.3976961 C144.130604,18.6185766 144.075395,18.8558151 144.075395,19.1094187 L141.094063,19.1094187 C141.094063,18.58585 141.222885,18.0806956 141.480532,17.5939403 C141.738179,17.107185 142.104196,16.6736112 142.578594,16.2932058 C143.052992,15.9128004 143.627578,15.6080716 144.302368,15.3790103 C144.977159,15.149949 145.731686,15.0354201 146.565972,15.0354201 C147.310286,15.0354201 147.997335,15.1315426 148.62714,15.3237904 C149.256944,15.5160383 149.800858,15.8023607 150.258898,16.1827661 C150.716937,16.5631715 151.07273,17.0376485 151.326288,17.6062114 C151.579846,18.1747743 151.706622,18.8394511 151.706622,19.6002619 L151.706622,25.4903805 C151.706622,26.6847716 151.874295,27.637816 152.209646,28.3495422 L152.209646,28.5581506 L149.166969,28.5581506 Z M145.891185,26.4107115 C146.234715,26.4107115 146.555747,26.365718 146.85429,26.2757296 C147.152834,26.1857413 147.422746,26.067122 147.664035,25.9198683 C147.905323,25.7726146 148.115937,25.6028664 148.295881,25.4106185 C148.475825,25.2183706 148.61896,25.0240804 148.725291,24.8277421 L148.725291,22.3244418 L147.118071,22.3244418 C146.013868,22.3244418 145.183684,22.5166868 144.627493,22.9011825 C144.071302,23.2856783 143.793211,23.8296908 143.793211,24.5332362 C143.793211,24.8032013 143.838196,25.0527108 143.928168,25.2817721 C144.01814,25.5108334 144.153097,25.7092139 144.333041,25.8769195 C144.512985,26.0446251 144.731777,26.1755153 144.989424,26.2695941 C145.247072,26.3636728 145.547656,26.4107115 145.891185,26.4107115 L145.891185,26.4107115 Z M161.779352,18.0050215 C161.58305,17.9722984 161.384705,17.9477565 161.184313,17.931395 C160.983921,17.9150335 160.777397,17.9068528 160.564736,17.9068528 C159.844959,17.9068528 159.26015,18.0459237 158.810289,18.3240696 C158.360429,18.6022155 158.025084,18.9867055 157.804243,19.4775511 L157.804243,28.5581506 L154.822912,28.5581506 L154.822912,15.2808417 L157.669286,15.2808417 L157.742899,16.7656424 C158.078249,16.2257121 158.493342,15.8023641 158.988188,15.4955856 C159.483034,15.188807 160.065799,15.0354201 160.7365,15.0354201 C160.908265,15.0354201 161.102519,15.0538265 161.31927,15.0906399 C161.536021,15.1274533 161.69347,15.1663114 161.791621,15.2072152 L161.779352,18.0050215 Z M167.398488,12.0535475 L167.398488,15.2808417 L169.741839,15.2808417 L169.741839,17.4896361 L167.398488,17.4896361 L167.398488,24.9013686 C167.398488,25.2040568 167.431205,25.4494759 167.496639,25.6376335 C167.562073,25.825791 167.656133,25.9709973 167.778822,26.0732568 C167.901512,26.1755163 168.046692,26.2450517 168.214367,26.2818652 C168.382042,26.3186786 168.568118,26.337085 168.7726,26.337085 C168.977082,26.337085 169.175426,26.3227689 169.367639,26.2941362 C169.559852,26.2655036 169.709122,26.2389165 169.815452,26.2143742 L169.815452,28.5213373 C169.578253,28.5867834 169.302207,28.6501834 168.987305,28.7115391 C168.672403,28.7728948 168.294117,28.8035722 167.852436,28.8035722 C167.361679,28.8035722 166.905691,28.7381271 166.484458,28.6072349 C166.063225,28.4763427 165.699253,28.2636461 165.39253,27.9691387 C165.085807,27.6746313 164.846567,27.2901413 164.674802,26.8156572 C164.503037,26.341173 164.417156,25.7603477 164.417156,25.0731638 L164.417156,17.4896361 L162.2333,17.4896361 L162.2333,15.2808417 L164.417156,15.2808417 L164.417156,12.0535475 L167.398488,12.0535475 Z" id="nice-start-copy-3" fill="#1E7BE2"></path>
                <g id="Group-2-Copy">
                    <rect id="Rectangle-194-Copy-4" fill="#1E7BE2" opacity="0.300000012" x="0" y="5.71163011" width="27.4108527" height="27.4158245" rx="1"></rect>
                    <rect id="Rectangle-194-Copy-5" fill="#1E7BE2" opacity="0.400000006" x="10.2790698" y="3.42697807" width="27.4108527" height="31.9851286" rx="1"></rect>
                    <path d="M20.5581395,0.999102741 C20.5581395,0.447313534 21.0117879,0 21.562169,0 L41.2738871,0 C41.8283973,0 42.2779166,0.454550247 42.2779166,1.00902642 L42.2779166,4.78376016 C42.2779166,5.34103006 42.7244857,5.79278658 43.2692263,5.79278658 L46.9776825,5.79278658 C47.5251678,5.79278658 47.9689922,6.23495018 47.9689922,6.7998405 L47.9689922,37.8320308 C47.9689922,38.3882114 47.5160953,38.8390848 46.9609171,38.8390848 L21.5662147,38.8390848 C21.0094702,38.8390848 20.5581395,38.3894721 20.5581395,37.839982 L20.5581395,0.999102741 Z" id="Rectangle-194-Copy-6" fill="#1E7BE2"></path>
                    <path d="M30.294577,18.4147886 C30.294577,18.2541482 30.3246912,18.1046656 30.3849204,17.9663364 C30.4451496,17.8280072 30.5299154,17.7086442 30.6392203,17.608244 C30.7485252,17.5078437 30.8790199,17.4286403 31.0307083,17.3706312 C31.1823967,17.3126222 31.3519283,17.2836181 31.5393081,17.2836181 C31.7222265,17.2836181 31.8906427,17.3126222 32.0445619,17.3706312 C32.198481,17.4286403 32.330091,17.5078437 32.4393959,17.608244 C32.5487008,17.7086442 32.6334666,17.8280072 32.6936958,17.9663364 C32.7539251,18.1046656 32.7840392,18.2541482 32.7840392,18.4147886 C32.7840392,18.575429 32.7539251,18.7249116 32.6936958,18.8632408 C32.6334666,19.00157 32.5487008,19.120933 32.4393959,19.2213332 C32.330091,19.3217335 32.198481,19.4009369 32.0445619,19.458946 C31.8906427,19.516955 31.7222265,19.5459591 31.5393081,19.5459591 C31.3519283,19.5459591 31.1823967,19.516955 31.0307083,19.458946 C30.8790199,19.4009369 30.7485252,19.3217335 30.6392203,19.2213332 C30.5299154,19.120933 30.4451496,19.00157 30.3849204,18.8632408 C30.3246912,18.7249116 30.294577,18.575429 30.294577,18.4147886 L30.294577,18.4147886 Z M32.5431235,24.5458665 C32.5431235,24.8180628 32.5074327,25.0902549 32.4360499,25.3624512 C32.3646671,25.6346474 32.2665172,25.8967997 32.1415974,26.1489159 C32.0166775,26.401032 31.870568,26.6375269 31.7032646,26.8584074 C31.5359612,27.079288 31.3563916,27.2722767 31.1645504,27.4373793 L30.0268929,26.901914 C30.0982757,26.750198 30.1752341,26.5973688 30.2577704,26.4434218 C30.3403068,26.2894747 30.4172652,26.1254901 30.488648,25.951463 C30.5600308,25.7774359 30.6202591,25.5866783 30.6693348,25.3791845 C30.7184104,25.1716906 30.7429479,24.9363113 30.7429479,24.6730396 L30.7429479,23.1134968 L32.5498156,23.1134968 L32.5431235,24.5458665 Z M41.1223992,21.0385687 C41.1223992,21.9176286 41.0209033,22.7342051 40.8179085,23.4883225 C40.6149137,24.24244 40.349463,24.9128805 40.0215483,25.4996642 C39.6936336,26.0864478 39.3211103,26.5795172 38.9039671,26.9788871 C38.486824,27.378257 38.0618797,27.660489 37.6291216,27.8255917 L37.200827,26.7145011 C37.4462053,26.5315495 37.6871186,26.2838993 37.9235741,25.971543 C38.1600296,25.6591866 38.3697134,25.2720937 38.5526318,24.8102526 C38.7355501,24.3484114 38.8838903,23.8073737 38.9976566,23.1871233 C39.1114229,22.5668729 39.1683052,21.8551573 39.1683052,21.0519553 L39.1683052,20.8377692 C39.1683052,20.0345672 39.1125382,19.3228516 39.0010026,18.7026012 C38.889467,18.0823508 38.7422422,17.5413131 38.5593239,17.0794719 C38.3764055,16.6176308 38.1667217,16.2305379 37.9302662,15.9181815 C37.6938107,15.6058252 37.4506668,15.358175 37.200827,15.1752234 L37.6291216,14.0641328 C38.0618797,14.2336977 38.486824,14.5170453 38.9039671,14.914184 C39.3211103,15.3113228 39.6936336,15.8032767 40.0215483,16.3900603 C40.349463,16.976844 40.6149137,17.6472845 40.8179085,18.401402 C41.0209033,19.1555194 41.1223992,19.9720959 41.1223992,20.8511558 L41.1223992,21.0385687 Z" id=";-)" fill="#FFFFFF" transform="translate(35.574646, 20.944862) rotate(-360.000000) translate(-35.574646, -20.944862) "></path>
                </g>
            </g>
        </g>
    </g>
</svg>