<?xml version="1.0" encoding="UTF-8" standalone="no"?>
<svg width="48px" height="39px" viewBox="0 0 48 39" version="1.1" xmlns="http://www.w3.org/2000/svg" xmlns:xlink="http://www.w3.org/1999/xlink">
    <!-- Generator: Sketch 40.3 (33839) - http://www.bohemiancoding.com/sketch -->
    <title>Group 2 Copy</title>
    <desc>Created with Sketch.</desc>
    <defs></defs>
    <g id="Page-1" stroke="none" stroke-width="1" fill="none" fill-rule="evenodd">
        <g id="homepage" transform="translate(-689.000000, -2038.000000)">
            <g id="Group-5-Copy-2" transform="translate(689.000000, 2038.000000)">
                <g id="Group-2-Copy">
                    <rect id="Rectangle-194-Copy-4" fill="#1E7BE2" opacity="0.300000012" x="0" y="5.71163011" width="27.4108527" height="27.4158245" rx="1"></rect>
                    <rect id="Rectangle-194-Copy-5" fill="#1E7BE2" opacity="0.400000006" x="10.2790698" y="3.42697807" width="27.4108527" height="31.9851286" rx="1"></rect>
                    <path d="M20.5581395,0.999102741 C20.5581395,0.447313534 21.0117879,0 21.562169,0 L41.2738871,0 C41.8283973,0 42.2779166,0.454550247 42.2779166,1.00902642 L42.2779166,4.78376016 C42.2779166,5.34103006 42.7244857,5.79278658 43.2692263,5.79278658 L46.9776825,5.79278658 C47.5251678,5.79278658 47.9689922,6.23495018 47.9689922,6.7998405 L47.9689922,37.8320308 C47.9689922,38.3882114 47.5160953,38.8390848 46.9609171,38.8390848 L21.5662147,38.8390848 C21.0094702,38.8390848 20.5581395,38.3894721 20.5581395,37.839982 L20.5581395,0.999102741 Z" id="Rectangle-194-Copy-6" fill="#1E7BE2"></path>
                    <path d="M30.294577,18.4147886 C30.294577,18.2541482 30.3246912,18.1046656 30.3849204,17.9663364 C30.4451496,17.8280072 30.5299154,17.7086442 30.6392203,17.608244 C30.7485252,17.5078437 30.8790199,17.4286403 31.0307083,17.3706312 C31.1823967,17.3126222 31.3519283,17.2836181 31.5393081,17.2836181 C31.7222265,17.2836181 31.8906427,17.3126222 32.0445619,17.3706312 C32.198481,17.4286403 32.330091,17.5078437 32.4393959,17.608244 C32.5487008,17.7086442 32.6334666,17.8280072 32.6936958,17.9663364 C32.7539251,18.1046656 32.7840392,18.2541482 32.7840392,18.4147886 C32.7840392,18.575429 32.7539251,18.7249116 32.6936958,18.8632408 C32.6334666,19.00157 32.5487008,19.120933 32.4393959,19.2213332 C32.330091,19.3217335 32.198481,19.4009369 32.0445619,19.458946 C31.8906427,19.516955 31.7222265,19.5459591 31.5393081,19.5459591 C31.3519283,19.5459591 31.1823967,19.516955 31.0307083,19.458946 C30.8790199,19.4009369 30.7485252,19.3217335 30.6392203,19.2213332 C30.5299154,19.120933 30.4451496,19.00157 30.3849204,18.8632408 C30.3246912,18.7249116 30.294577,18.575429 30.294577,18.4147886 L30.294577,18.4147886 Z M32.5431235,24.5458665 C32.5431235,24.8180628 32.5074327,25.0902549 32.4360499,25.3624512 C32.3646671,25.6346474 32.2665172,25.8967997 32.1415974,26.1489159 C32.0166775,26.401032 31.870568,26.6375269 31.7032646,26.8584074 C31.5359612,27.079288 31.3563916,27.2722767 31.1645504,27.4373793 L30.0268929,26.901914 C30.0982757,26.750198 30.1752341,26.5973688 30.2577704,26.4434218 C30.3403068,26.2894747 30.4172652,26.1254901 30.488648,25.951463 C30.5600308,25.7774359 30.6202591,25.5866783 30.6693348,25.3791845 C30.7184104,25.1716906 30.7429479,24.9363113 30.7429479,24.6730396 L30.7429479,23.1134968 L32.5498156,23.1134968 L32.5431235,24.5458665 Z M41.1223992,21.0385687 C41.1223992,21.9176286 41.0209033,22.7342051 40.8179085,23.4883225 C40.6149137,24.24244 40.349463,24.9128805 40.0215483,25.4996642 C39.6936336,26.0864478 39.3211103,26.5795172 38.9039671,26.9788871 C38.486824,27.378257 38.0618797,27.660489 37.6291216,27.8255917 L37.200827,26.7145011 C37.4462053,26.5315495 37.6871186,26.2838993 37.9235741,25.971543 C38.1600296,25.6591866 38.3697134,25.2720937 38.5526318,24.8102526 C38.7355501,24.3484114 38.8838903,23.8073737 38.9976566,23.1871233 C39.1114229,22.5668729 39.1683052,21.8551573 39.1683052,21.0519553 L39.1683052,20.8377692 C39.1683052,20.0345672 39.1125382,19.3228516 39.0010026,18.7026012 C38.889467,18.0823508 38.7422422,17.5413131 38.5593239,17.0794719 C38.3764055,16.6176308 38.1667217,16.2305379 37.9302662,15.9181815 C37.6938107,15.6058252 37.4506668,15.358175 37.200827,15.1752234 L37.6291216,14.0641328 C38.0618797,14.2336977 38.486824,14.5170453 38.9039671,14.914184 C39.3211103,15.3113228 39.6936336,15.8032767 40.0215483,16.3900603 C40.349463,16.976844 40.6149137,17.6472845 40.8179085,18.401402 C41.0209033,19.1555194 41.1223992,19.9720959 41.1223992,20.8511558 L41.1223992,21.0385687 Z" id=";-)" fill="#FFFFFF" transform="translate(35.574646, 20.944862) rotate(-360.000000) translate(-35.574646, -20.944862) "></path>
                </g>
            </g>
        </g>
    </g>
</svg>