<?xml version="1.0" encoding="UTF-8" standalone="no"?>
<svg width="142px" height="67px" viewBox="0 0 142 67" version="1.1" xmlns="http://www.w3.org/2000/svg" xmlns:xlink="http://www.w3.org/1999/xlink">
    <!-- Generator: Sketch 40.1 (33804) - http://www.bohemiancoding.com/sketch -->
    <title>logotype-complete-filled</title>
    <desc>Created with Sketch.</desc>
    <defs></defs>
    <g id="Page-1" stroke="none" stroke-width="1" fill="none" fill-rule="evenodd">
        <g id="logotype-complete-filled">
            <g id="Page-1">
                <g id="Pages">
                    <g id="what-we-do">
                        <g id="Page-1">
                            <rect id="Rectangle-2" fill="#FFFFFF" x="2" y="2" width="138" height="64"></rect>
                            <path d="M140.151341,66.9691587 L141.480929,66.9691587 L141.480929,65.6397937 L141.480929,1.32936508 L141.480929,0 L140.151341,0 L1.32958801,0 L0,0 L0,1.32936508 L0,65.6397937 L0,66.9691587 L1.32958801,66.9691587 L140.151341,66.9691587 L140.151341,66.9691587 Z M2.70095486,2.65950521 L138.821753,2.65873016 L138.821753,64.3104286 L2.65917603,64.3104286 L2.70095486,2.65950521 Z" id="Stroke-1" fill="#000000"></path>
                            <polygon id="Fill-3" fill="#000000" points="35.4522412 18.3880968 35.4522412 35.4470413 32.2638891 35.4470413 32.2638891 25.0498111 32.0612599 25.0498111 28.8729079 34.2335968 24.9463685 34.2335968 21.7814172 25.0498111 21.5910202 25.0498111 21.5910202 35.4470413 18.3909678 35.4470413 18.3909678 18.3880968 22.5669378 18.3880968 26.7312075 30.4741524 27.1237019 30.4741524 31.2879715 18.3880968"></polygon>
                            <path d="M43.63777,28.7017897 L48.0637026,28.7017897 L46.1480322,22.7776071 L45.5534404,22.7776071 L43.63777,28.7017897 L43.63777,28.7017897 Z M47.9924367,18.3880437 L53.7511483,35.4469881 L50.241036,35.4469881 L49.0390884,31.7237024 L42.6623843,31.7237024 L41.4604367,35.4469881 L37.9503243,35.4469881 L43.709036,18.3880437 L47.9924367,18.3880437 L47.9924367,18.3880437 Z" id="Fill-4" fill="#000000"></path>
                            <polygon id="Fill-5" fill="#000000" points="65.8385393 18.3880968 65.8385393 21.4100095 61.2222097 21.4100095 61.2222097 35.4470413 57.9620599 35.4470413 57.9620599 21.4100095 53.3579625 21.4100095 53.3579625 18.3880968"></polygon>
                            <polygon id="Fill-6" fill="#000000" points="68.6460974 35.4467222 72.0370787 35.4467222 72.0370787 18.3877778 68.6460974 18.3877778"></polygon>
                            <polygon id="Fill-7" fill="#000000" points="79.7818225 32.2585857 88.0864292 32.2585857 88.0864292 35.4469349 76.3674404 35.4469349 76.3674404 18.3879905 79.7818225 18.3879905"></polygon>
                            <polygon id="Fill-8" fill="#000000" points="101.506918 18.3880968 104.802701 18.3880968 104.802701 35.4470413 101.506918 35.4470413 101.506918 28.3567397 94.7845213 28.3567397 94.7845213 35.4470413 91.4892704 35.4470413 91.4892704 18.3880968 94.7845213 18.3880968 94.7845213 25.2641048 101.506918 25.2641048"></polygon>
                            <path d="M112.976157,28.7017897 L117.40209,28.7017897 L115.486419,22.7776071 L114.891828,22.7776071 L112.976157,28.7017897 L112.976157,28.7017897 Z M117.330824,18.3880437 L123.089004,35.4469881 L119.579423,35.4469881 L118.378007,31.7237024 L112.000772,31.7237024 L110.798824,35.4469881 L107.289243,35.4469881 L113.047955,18.3880437 L117.330824,18.3880437 L117.330824,18.3880437 Z" id="Fill-9" fill="#000000"></path>
                            <path d="M19.640036,43.0704714 L19.640036,47.4908762 L20.1165603,47.4908762 C20.3489723,47.4908762 20.5569199,47.447273 20.7409348,47.3590032 C20.9249498,47.2707333 21.0807775,47.1425825 21.2089498,46.9750825 C21.3365903,46.8075825 21.4344479,46.6039238 21.501991,46.3641063 C21.5695341,46.1242889 21.6035715,45.8515032 21.6035715,45.5452175 L21.6035715,45.0076222 C21.6035715,44.7188841 21.5705978,44.4567333 21.5041184,44.2201063 C21.4381708,43.9829476 21.3392494,43.7792889 21.2089498,43.6091302 C21.0775865,43.4384397 20.9159086,43.3060349 20.7233843,43.2119159 C20.5303281,43.1177968 20.3074891,43.0704714 20.0548674,43.0704714 L19.640036,43.0704714 L19.640036,43.0704714 Z M18.3912869,48.4884317 L18.3912869,42.0644079 L20.0548674,42.0644079 C20.4813993,42.0644079 20.8675116,42.1372571 21.2132045,42.2829556 C21.5588974,42.428654 21.8545978,42.631781 22.0997738,42.8918048 C22.3454816,43.1523603 22.5353468,43.4634317 22.6688375,43.825019 C22.8028599,44.1871381 22.8698712,44.5838206 22.8698712,45.0161302 L22.8698712,45.5452175 C22.8698712,45.9780587 22.8028599,46.3747413 22.6688375,46.7347333 C22.5353468,47.0952571 22.347609,47.4052651 22.1066876,47.6658206 C21.8652345,47.9258444 21.5753843,48.1279079 21.2376689,48.2720111 C20.8988899,48.416646 20.5255416,48.4884317 20.1165603,48.4884317 L18.3912869,48.4884317 L18.3912869,48.4884317 Z" id="Fill-10" fill="#000000"></path>
                            <polygon id="Fill-12" fill="#000000" points="25.3793888 42.0646206 29.0947895 42.0646206 29.0947895 43.0664302 27.8417858 43.0664302 27.8417858 47.4910889 29.0947895 47.4910889 29.0947895 48.4881127 25.3793888 48.4881127 25.3793888 47.4910889 26.6015461 47.4910889 26.6015461 43.0664302 25.3793888 43.0664302"></polygon>
                            <path d="M36.2108509,47.7383508 C36.1316075,47.8356603 36.0225813,47.9340333 35.8843041,48.0340016 C35.746027,48.1339698 35.5822217,48.2243667 35.3923566,48.3051921 C35.2024914,48.3860175 34.9902891,48.451954 34.7546861,48.5014063 C34.519615,48.5513905 34.2664614,48.5763825 33.9957573,48.5763825 C33.6309184,48.5763825 33.3017124,48.5120413 33.0076075,48.3822952 C32.7129708,48.253081 32.4619446,48.0659063 32.2529333,47.8218349 C32.0439221,47.5777635 31.882776,47.2783905 31.770027,46.9242476 C31.6567461,46.569573 31.5998397,46.1681048 31.5998397,45.7177159 L31.5998397,44.8440571 C31.5998397,44.3942 31.6594052,43.9922 31.7785363,43.6375254 C31.8976674,43.2833825 32.0625363,42.9824143 32.2726112,42.7356841 C32.483218,42.4884222 32.7299895,42.3001841 33.0139895,42.1709698 C33.2979895,42.0412238 33.6059221,41.9763508 33.9383191,41.9763508 C34.3004989,41.9763508 34.6158772,42.022081 34.8849858,42.1135413 C35.1540944,42.2044698 35.381188,42.3358111 35.5667985,42.5080968 C35.7518772,42.6803825 35.8970682,42.8893587 36.0013079,43.1366206 C36.1055476,43.3838825 36.1741543,43.661454 36.2065963,43.9703984 L34.9977348,43.9703984 C34.9562517,43.6412476 34.8567985,43.393454 34.6993753,43.2275492 C34.5424839,43.0611127 34.2989034,42.9776286 33.9691655,42.9776286 C33.8106787,42.9776286 33.6633603,43.018573 33.5282742,43.0993984 C33.3926562,43.1802238 33.2751206,43.2988032 33.1751356,43.4546048 C33.0751506,43.6104063 32.9953753,43.8034302 32.9368734,44.0347397 C32.8778397,44.2655175 32.8485888,44.532454 32.8485888,44.8350175 L32.8485888,45.7177159 C32.8517798,46.3175254 32.951233,46.7774857 33.1485438,47.0965333 C33.3458547,47.415581 33.6474052,47.5767 34.0531955,47.5798905 C34.1505213,47.5798905 34.2457199,47.5719143 34.3398547,47.5575571 C34.4339895,47.5426683 34.5222742,47.5224619 34.6047086,47.4953429 C34.6871431,47.4692873 34.7600045,47.4389778 34.8232929,47.404946 C34.8865813,47.371446 34.9344464,47.335819 34.9663566,47.2970016 L34.9711431,46.131946 L33.9074727,46.131946 L33.9074727,45.2061762 L36.2065963,45.2061762 L36.2108509,47.7383508 L36.2108509,47.7383508 Z" id="Fill-14" fill="#000000"></path>
                            <polygon id="Fill-16" fill="#000000" points="38.7556824 42.0646206 42.4710831 42.0646206 42.4710831 43.0664302 41.2180794 43.0664302 41.2180794 47.4910889 42.4710831 47.4910889 42.4710831 48.4881127 38.7556824 48.4881127 38.7556824 47.4910889 39.9778397 47.4910889 39.9778397 43.0664302 38.7556824 43.0664302"></polygon>
                            <polygon id="Fill-18" fill="#000000" points="49.8916734 43.0749913 47.9105873 43.0749913 47.9105873 48.4881659 46.6660929 48.4881659 46.6660929 43.0749913 44.7115985 43.0749913 44.7115985 42.0646738 49.8916734 42.0646738"></polygon>
                            <path d="M53.3941273,46.0928627 L54.7263745,46.0928627 L54.0690262,43.7281881 L53.3941273,46.0928627 L53.3941273,46.0928627 Z M55.0178202,47.1473151 L53.0893858,47.1473151 L52.7101873,48.4883786 L51.404,48.4883786 L53.5084719,42.0643548 L54.6338352,42.0643548 L56.6989513,48.4883786 L55.392764,48.4883786 L55.0178202,47.1473151 L55.0178202,47.1473151 Z" id="Fill-20" fill="#000000"></path>
                            <polygon id="Fill-22" fill="#000000" points="59.8747521 47.4870476 62.8838757 47.4870476 62.8838757 48.4883254 58.6302577 48.4883254 58.6302577 42.0648333 59.8747521 42.0648333"></polygon>
                            <path d="M73.24243,45.1264143 L74.2002652,45.1264143 C74.3763026,45.1264143 74.5294712,45.1003587 74.6587071,45.0471841 C74.7884749,44.9945413 74.8964375,44.9222238 74.9831266,44.8307635 C75.0698157,44.7398349 75.1346996,44.6345492 75.1772464,44.5154381 C75.2197933,44.396327 75.2410667,44.2718984 75.2410667,44.1426841 C75.2410667,43.9927317 75.2197933,43.8528825 75.1772464,43.7236683 C75.1346996,43.594454 75.0698157,43.4811921 74.9831266,43.3838825 C74.8964375,43.2871048 74.7884749,43.2105333 74.6587071,43.1547 C74.5294712,43.0983349 74.3763026,43.0706841 74.2002652,43.0706841 L73.24243,43.0706841 L73.24243,45.1264143 L73.24243,45.1264143 Z M73.24243,46.1324778 L73.24243,48.4881127 L72.0027221,48.4881127 L72.0027221,42.0646206 L74.2002652,42.0646206 C74.5502127,42.0646206 74.8661228,42.1156683 75.1485273,42.2172317 C75.4309318,42.3182635 75.6713213,42.4597079 75.8702277,42.6405016 C76.0686022,42.8212952 76.2217708,43.0382476 76.3292015,43.290827 C76.4361004,43.5444698 76.4903476,43.8247 76.4903476,44.1336444 C76.4903476,44.4218508 76.4361004,44.6882556 76.3292015,44.932327 C76.2217708,45.1763984 76.0686022,45.3875016 75.8702277,45.5651048 C75.6713213,45.7432397 75.4309318,45.8825571 75.1485273,45.9825254 C74.8661228,46.0824937 74.5502127,46.1324778 74.2002652,46.1324778 L73.24243,46.1324778 L73.24243,46.1324778 Z" id="Fill-24" fill="#000000"></path>
                            <path d="M79.851227,45.0825452 L80.7691745,45.0825452 C81.1191221,45.0825452 81.3887625,44.9937437 81.5786277,44.8156087 C81.7684929,44.6374738 81.8631596,44.3939341 81.8631596,44.0855214 C81.8631596,43.7648786 81.7706202,43.5154897 81.5855416,43.3373548 C81.3999311,43.1597516 81.1265678,43.0704183 80.764388,43.0704183 L79.851227,43.0704183 L79.851227,45.0825452 L79.851227,45.0825452 Z M80.7909798,46.0886087 L79.851227,46.0886087 L79.851227,48.4883786 L78.6115191,48.4883786 L78.6115191,42.0643548 L80.764388,42.0643548 C81.1201858,42.0643548 81.4424779,42.1068944 81.7307326,42.1903786 C82.0189873,42.2743944 82.2657588,42.3972278 82.4699835,42.5588786 C82.6742082,42.7205294 82.8321633,42.9220611 82.9422532,43.1629421 C83.0523431,43.4043548 83.1076539,43.6840532 83.1076539,44.0015056 C83.1076539,44.2306881 83.0805303,44.4375373 83.0262831,44.6215214 C82.9715041,44.8055056 82.8938562,44.9698151 82.7922757,45.1155135 C82.6906951,45.2612119 82.568373,45.3882992 82.4258412,45.4973071 C82.2833094,45.6057833 82.1237588,45.6999024 81.9471895,45.7796643 L83.3283655,48.43095 L83.3283655,48.4883786 L81.9998412,48.4883786 L80.7909798,46.0886087 L80.7909798,46.0886087 Z" id="Fill-26" fill="#000000"></path>
                            <path d="M88.5249273,44.8045484 C88.5249273,44.5429294 88.5036539,44.3015167 88.4611071,44.0808421 C88.4180285,43.8601675 88.3515491,43.6708659 88.2600734,43.5118738 C88.1691296,43.3528817 88.0521258,43.2284532 87.909594,43.1391198 C87.7665303,43.0492548 87.5942157,43.0045881 87.3910547,43.0045881 C87.1910846,43.0045881 87.0230247,43.0492548 86.8879386,43.1391198 C86.7523206,43.2284532 86.6438262,43.3528817 86.5613918,43.5118738 C86.4789573,43.6708659 86.4204554,43.8601675 86.3848225,44.0808421 C86.3497213,44.3015167 86.331639,44.5429294 86.331639,44.8045484 L86.331639,45.7483976 C86.331639,46.0073579 86.3497213,46.2471754 86.3848225,46.46785 C86.4204554,46.6885246 86.4789573,46.8794214 86.5613918,47.0410722 C86.6438262,47.2032548 86.7523206,47.3298103 86.8879386,47.4207389 C87.0230247,47.5116675 87.1926801,47.5573976 87.3953094,47.5573976 C87.5952794,47.5573976 87.7665303,47.5116675 87.909594,47.4207389 C88.0521258,47.3298103 88.1680659,47.2037865 88.2579461,47.043731 C88.3478262,46.8831437 88.4148375,46.6927786 88.4584479,46.472104 C88.5031221,46.2514294 88.5249273,46.0105484 88.5249273,45.7483976 L88.5249273,44.8045484 L88.5249273,44.8045484 Z M89.7827176,45.7483976 C89.7827176,46.1605008 89.7279386,46.5401675 89.6194442,46.8868659 C89.510418,47.234096 89.3529948,47.5329373 89.1471745,47.7823262 C88.9413543,48.0327786 88.6903281,48.2273976 88.3946277,48.3672468 C88.0994592,48.507096 87.7659985,48.5767548 87.3953094,48.5767548 C87.0246202,48.5767548 86.6954142,48.507096 86.4071596,48.3672468 C86.1189049,48.2273976 85.8758562,48.0317151 85.6790772,47.7801992 C85.4817663,47.5286833 85.3317888,47.2303738 85.2291446,46.8842071 C85.1259685,46.539104 85.0743805,46.1605008 85.0743805,45.7483976 L85.0743805,44.8130563 C85.0743805,44.4020167 85.1259685,44.0218183 85.2291446,43.6751198 C85.3317888,43.3278897 85.4817663,43.0290484 85.6790772,42.7770008 C85.8758562,42.5254849 86.1178412,42.3298024 86.4045004,42.1883579 C86.6916914,42.0469135 87.0203655,41.976723 87.3910547,41.976723 C87.764403,41.976723 88.0994592,42.0469135 88.3946277,42.1883579 C88.6903281,42.3298024 88.9413543,42.5254849 89.1471745,42.7770008 C89.3529948,43.0290484 89.510418,43.3278897 89.6194442,43.6751198 C89.7279386,44.0218183 89.7827176,44.4020167 89.7827176,44.8130563 L89.7827176,45.7483976 L89.7827176,45.7483976 Z" id="Fill-28" fill="#000000"></path>
                            <path d="M93.2099169,43.0704714 L93.2099169,47.4908762 L93.6864412,47.4908762 C93.9188532,47.4908762 94.1268007,47.447273 94.3108157,47.3590032 C94.4942989,47.2707333 94.6506584,47.1425825 94.7782989,46.9750825 C94.9064712,46.8075825 95.0043288,46.6039238 95.0718719,46.3641063 C95.139415,46.1242889 95.1734524,45.8515032 95.1734524,45.5452175 L95.1734524,45.0076222 C95.1734524,44.7188841 95.1404787,44.4567333 95.0739993,44.2201063 C95.0080517,43.9829476 94.9096622,43.7792889 94.7782989,43.6091302 C94.6474674,43.4384397 94.4857895,43.3060349 94.2932652,43.2119159 C94.1007408,43.1177968 93.8779019,43.0704714 93.6247483,43.0704714 L93.2099169,43.0704714 L93.2099169,43.0704714 Z M91.9611678,48.4884317 L91.9611678,42.0644079 L93.6247483,42.0644079 C94.0512801,42.0644079 94.4368607,42.1372571 94.7830854,42.2829556 C95.1287783,42.428654 95.4239468,42.631781 95.6701865,42.8918048 C95.9153625,43.1523603 96.1052277,43.4634317 96.2392502,43.825019 C96.3732727,44.1871381 96.4397521,44.5838206 96.4397521,45.0161302 L96.4397521,45.5452175 C96.4397521,45.9780587 96.3732727,46.3747413 96.2392502,46.7347333 C96.1052277,47.0952571 95.9174899,47.4052651 95.6760367,47.6658206 C95.4351154,47.9258444 95.1452652,48.1279079 94.8075498,48.2720111 C94.4687708,48.416646 94.0954225,48.4884317 93.6864412,48.4884317 L91.9611678,48.4884317 L91.9611678,48.4884317 Z" id="Fill-30" fill="#000000"></path>
                            <path d="M102.955584,42.0646206 L102.959839,46.3223111 C102.959839,46.6812397 102.91091,47.0002873 102.812521,47.279454 C102.713599,47.5591524 102.571067,47.7947159 102.383861,47.9872079 C102.197187,48.1802317 101.969562,48.3264619 101.700453,48.4264302 C101.430813,48.5263984 101.124476,48.5763825 100.780378,48.5763825 C100.456491,48.5763825 100.164513,48.5263984 99.9039139,48.4264302 C99.6443783,48.3264619 99.4215393,48.1807635 99.2359288,47.9898667 C99.0503184,47.7984381 98.9072547,47.5623429 98.8056742,47.281581 C98.7040936,47.000819 98.6535693,46.6812397 98.6535693,46.3223111 L98.657824,42.0646206 L99.8980637,42.0646206 L99.9023184,46.3223111 C99.9049775,46.737073 99.98103,47.0497397 100.129412,47.2619063 C100.278326,47.4735413 100.495315,47.5798905 100.780378,47.5798905 C101.083524,47.5798905 101.314873,47.4735413 101.475487,47.2619063 C101.635569,47.0497397 101.71694,46.737073 101.720131,46.3223111 L101.724386,42.0646206 L102.955584,42.0646206 L102.955584,42.0646206 Z" id="Fill-32" fill="#000000"></path>
                            <path d="M109.824821,46.476677 C109.804611,46.7999786 109.734409,47.0913754 109.615278,47.349804 C109.496147,47.609296 109.336596,47.8294389 109.136626,48.0118278 C108.936124,48.1942167 108.697862,48.3345976 108.42184,48.4329706 C108.145285,48.5318754 107.83948,48.580796 107.503892,48.580796 C107.124162,48.580796 106.78751,48.5111373 106.493405,48.3712881 C106.1993,48.2314389 105.952529,48.0362881 105.752027,47.7842405 C105.552057,47.5332563 105.39942,47.2312246 105.293053,46.8781452 C105.187218,46.5250659 105.134566,46.1368913 105.134566,45.7130897 L105.134566,44.8484706 C105.134566,44.4220103 105.190409,44.0322405 105.302094,43.6791611 C105.41378,43.3260817 105.572267,43.0235183 105.778619,42.7709389 C105.984439,42.5178278 106.23387,42.3216135 106.526379,42.1817643 C106.818888,42.0419151 107.147563,41.9717246 107.512401,41.9717246 C107.86554,41.9717246 108.179855,42.0222405 108.454813,42.1222087 C108.729772,42.222177 108.964312,42.3646849 109.158963,42.5502643 C109.352551,42.7353119 109.50572,42.9618357 109.617937,43.229304 C109.729622,43.497304 109.799825,43.798804 109.829076,44.133804 L108.593622,44.133804 C108.581922,43.9429071 108.553203,43.7754071 108.507997,43.6307722 C108.462259,43.486669 108.396312,43.3670262 108.309091,43.2713119 C108.222401,43.1755976 108.113375,43.1038119 107.983076,43.0548913 C107.851712,43.0065024 107.695353,42.9820421 107.512401,42.9820421 C107.321473,42.9820421 107.15554,43.0235183 107.014604,43.1059389 C106.872604,43.1883595 106.756132,43.3085341 106.663593,43.4680579 C106.571053,43.6265183 106.501915,43.8211373 106.458304,44.0524468 C106.414162,44.2832246 106.391825,44.5453754 106.391825,44.8399627 L106.391825,45.7130897 C106.391825,46.3453357 106.480641,46.8132722 106.658806,47.1163675 C106.836439,47.4194627 107.118312,47.5704786 107.503892,47.5704786 C107.827248,47.5704786 108.083061,47.4848675 108.271862,47.3125817 C108.4596,47.140296 108.564372,46.8616611 108.585113,46.476677 L109.824821,46.476677 L109.824821,46.476677 Z" id="Fill-34" fill="#000000"></path>
                            <polygon id="Fill-36" fill="#000000" points="116.773195 43.0749913 114.792109 43.0749913 114.792109 48.4881659 113.547614 48.4881659 113.547614 43.0749913 111.59312 43.0749913 111.59312 42.0646738 116.773195 42.0646738"></polygon>
                            <path d="M122.07623,46.811677 C122.07623,46.6973516 122.056552,46.5899389 122.016664,46.4899706 C121.976777,46.3900024 121.908702,46.2964151 121.813503,46.2097405 C121.717773,46.1225341 121.592792,46.0438357 121.438028,45.9715183 C121.284327,45.8992008 121.091803,45.8327325 120.862582,45.7705183 C120.583369,45.6939468 120.315855,45.5987643 120.061638,45.4839071 C119.807421,45.36905 119.582987,45.230796 119.388867,45.0691452 C119.194747,44.9074944 119.039451,44.7192563 118.922979,44.504431 C118.807039,44.2896056 118.749069,44.0428754 118.749069,43.7637087 C118.749069,43.4925183 118.806507,43.2473833 118.921384,43.0267087 C119.035728,42.8060341 119.194747,42.617796 119.397908,42.4619944 C119.601069,42.3061929 119.840395,42.1860183 120.116949,42.1020024 C120.393503,42.0185183 120.693458,41.9765103 121.016814,41.9765103 C121.352402,41.9765103 121.658739,42.0248992 121.936889,42.1222087 C122.215039,42.2189865 122.454365,42.3551135 122.653803,42.5300579 C122.853773,42.7050024 123.010133,42.9129151 123.121818,43.1543278 C123.233503,43.3957405 123.289346,43.66055 123.289346,43.9487563 L122.080485,43.9487563 C122.074634,43.8046532 122.048575,43.6722484 122.003369,43.5515421 C121.957631,43.4313675 121.890088,43.3271452 121.800207,43.2404706 C121.710327,43.153796 121.598642,43.0862643 121.465151,43.0373437 C121.331129,42.9889548 121.174237,42.9644944 120.995009,42.9644944 C120.83014,42.9644944 120.683885,42.9847008 120.555713,43.0245817 C120.427541,43.063931 120.319578,43.1197643 120.231294,43.1920817 C120.143541,43.2638675 120.07653,43.3494786 120.030792,43.4478516 C119.985054,43.5462246 119.962717,43.6531056 119.962717,43.767431 C119.962717,43.8881373 119.9925,43.9971452 120.053129,44.0944548 C120.113226,44.1912325 120.200979,44.2789706 120.315855,44.3566056 C120.4302,44.4347722 120.569541,44.5060262 120.732282,44.5708992 C120.895556,44.6352405 121.080103,44.6958595 121.286455,44.7516929 C121.580028,44.837304 121.851264,44.9409944 122.098035,45.0648913 C122.345339,45.1882563 122.557541,45.3350183 122.735706,45.5041135 C122.913339,45.6732087 123.052148,45.8657008 123.150537,46.0815897 C123.248927,46.2974786 123.298387,46.5383595 123.298387,46.803169 C123.298387,47.0855262 123.242013,47.3359786 123.1282,47.5550579 C123.015451,47.774669 122.85856,47.9597167 122.65859,48.1112643 C122.458088,48.2628119 122.219825,48.3771373 121.943803,48.455304 C121.667249,48.5329389 121.365698,48.5717563 121.039151,48.5717563 C120.83599,48.5717563 120.633893,48.553677 120.432327,48.5169865 C120.230762,48.480296 120.038237,48.423931 119.854222,48.3473595 C119.670207,48.2707881 119.498957,48.1750738 119.34047,48.0602167 C119.181451,47.9458913 119.043706,47.8118913 118.927766,47.6587484 C118.811294,47.5061373 118.72035,47.3322563 118.65387,47.1387008 C118.587923,46.9440817 118.554949,46.7292563 118.554949,46.4942246 L119.772852,46.4942246 C119.778702,46.6883119 119.812207,46.8547484 119.874432,46.9930024 C119.935593,47.1307246 120.022282,47.2445183 120.132372,47.3322563 C120.242994,47.4205262 120.374889,47.4853992 120.529653,47.5263437 C120.683885,47.5678198 120.853541,47.5885579 121.039151,47.5885579 C121.203488,47.5885579 121.350275,47.5694151 121.477915,47.5311294 C121.606088,47.4928437 121.71405,47.4402008 121.802867,47.3721373 C121.890619,47.3046056 121.958163,47.2232484 122.005496,47.1270024 C122.052297,47.0318198 122.07623,46.9265341 122.07623,46.811677" id="Fill-38" fill="#000000"></path>
                        </g>
                    </g>
                </g>
            </g>
        </g>
    </g>
</svg>